<svg xmlns="http://www.w3.org/2000/svg" viewBox="0 0 1366 768"><defs><style>.cls-1{fill:#171544;}</style></defs><title>boy</title><g id="Layer_16" data-name="Layer 16"><path class="cls-1" d="M879.69,619.56c-3.41-19.17-9.46-37.62-17.38-59.47a134.08,134.08,0,0,1-6.1-22,132.07,132.07,0,0,1-1.83-13.72c1.31-7.59,3-18.86,4.27-32.63a339.64,339.64,0,0,0-.61-62.21c-1.16-11.63-3-23.47-11.28-34.77a54.7,54.7,0,0,0-8.84-9.45c-9.06-5.64-24.15-14.89-41.48-24.7a68.71,68.71,0,0,0-18.3-7.62,65.89,65.89,0,0,0-18.91-1.83q-.35-3.14-.61-6.4a189,189,0,0,1-.31-24.7l2.44,3.66a10,10,0,0,0,4.57-.61c6.17-2.43,8.29-11,10.37-19.52a79.39,79.39,0,0,0,1.52-7.93c2-3.81,12.57-25.32,3.66-50-1.5-4.15-11.18-29.56-36.9-36.6-16.92-4.63-34.88.3-41.78,6.71-.73.68-1.34,1.38-8.23,8.23-5.89,5.85-6.76,6.66-7.93,8.54-1.54,2.47-1,2.63-4,12.81-1.89,6.47-2.62,8.1-4.57,15.25q-.8,2.92-1.52,5.79a60.91,60.91,0,0,0-2.44,11,62.22,62.22,0,0,0,0,14.64c.63,7.12,1.66,8.74,2.75,9.76,2.11,2,3.94,1.23,5.18,3,1.77,2.59-1.21,6-1.83,11.28a56.33,56.33,0,0,0,0,14.33,41.13,41.13,0,0,0,8.54,19.21q-4.28,2.81-8.59,5.78c-10.06,6.94-19.47,14-28.27,21.12q-.7,134.35-1.4,268.7l220.44,1.65a13.65,13.65,0,0,0,6.29-3.26C882.44,638.16,881.22,628.15,879.69,619.56Z"/></g></svg>