<svg xmlns="http://www.w3.org/2000/svg" viewBox="0 0 1366 768"><defs><style>.cls-1{fill:#171544;}</style></defs><title>girl</title><g id="Layer_16" data-name="Layer 16"><path class="cls-1" d="M763.59,263.77l-2.41,2c3.27-18.06,4.73-44.29-5.81-72-6.18-16.24-15.12-39.74-36-45.28-18-4.77-34.63,6.43-37.15,8.13-8.35,5.61-14.86,17.28-27.87,40.64-14.67,26.33-10.83,26.13-18.58,34.83-3.63,4.08-8.81,9-8.13,15.09.58,5.23,5.22,9.09,9.29,11.61-2.62.56-6.66,1.39-11.61,2.32-24.68,4.63-30.33,3.72-37.16,5.81-16.07,4.91-23.94,21.92-33.67,43a208,208,0,0,0-17.42,59.22c-8.58,66.75-12.85,132.73-14.41,159.13L763.46,530V264.75Z"/></g></svg>