<?xml version="1.0" encoding="utf-8"?>
<!-- Generator: Adobe Illustrator 21.1.0, SVG Export Plug-In . SVG Version: 6.00 Build 0)  -->
<svg version="1.1" xmlns="http://www.w3.org/2000/svg" xmlns:xlink="http://www.w3.org/1999/xlink" x="0px" y="0px"
	 viewBox="0 0 1366 768" style="enable-background:new 0 0 1366 768;" xml:space="preserve">
<style type="text/css">
	.st0{fill:url(#SVGID_1_);stroke:#CDEFF9;stroke-width:2;stroke-miterlimit:10;}
	.st1{fill:url(#SVGID_2_);}
	.st2{fill:url(#SVGID_3_);stroke:#CDEFF9;stroke-width:2;stroke-miterlimit:10;}
	.st3{fill:url(#SVGID_4_);stroke:#CDEFF9;stroke-width:2;stroke-miterlimit:10;}
	.st4{fill:url(#SVGID_5_);stroke:#CDEFF9;stroke-width:2;stroke-miterlimit:10;}
	.st5{fill:url(#SVGID_6_);stroke:#CDEFF9;stroke-width:2;stroke-miterlimit:10;}
	.st6{opacity:0.13;fill:#FFC78A;stroke:#CDEFF9;stroke-width:2;stroke-miterlimit:10;}
	.st7{fill:url(#SVGID_7_);stroke:#CDEFF9;stroke-width:2;stroke-miterlimit:10;}
	.st8{fill:#FFD278;}
	.st9{fill:#424091;}
	.st10{fill:url(#SVGID_8_);}
	.st11{fill:none;stroke:url(#SVGID_9_);stroke-width:2.4395;stroke-miterlimit:10;}
	.st12{fill:none;stroke:url(#SVGID_10_);stroke-width:2.4395;stroke-miterlimit:10;}
	.st13{fill:none;stroke:url(#SVGID_11_);stroke-width:2.4395;stroke-miterlimit:10;}
	.st14{fill:#DAF3F7;}
	.st15{fill:url(#SVGID_12_);}
	.st16{fill:#FD9399;}
	.st17{fill:#EA8191;}
	.st18{opacity:0.51;fill:#FD9399;}
	.st19{opacity:0.48;fill:#FD9399;}
	.st20{opacity:0.72;fill:#FD9399;}
	.st21{opacity:0.13;fill:#FD9399;}
	.st22{opacity:0.13;fill:#EA8191;}
	.st23{fill:#F9EEB2;}
	.st24{fill:url(#SVGID_13_);}
	.st25{fill:url(#SVGID_14_);}
	.st26{fill:url(#SVGID_15_);}
	.st27{fill:#A3E8EF;stroke:#B54774;stroke-width:1.2155;stroke-miterlimit:10;}
	.st28{fill:#56B6CC;stroke:#B54774;stroke-width:1.2155;stroke-miterlimit:10;}
	.st29{fill:#CE7A9A;}
	.st30{fill:none;stroke:#A1A1FF;stroke-miterlimit:10;}
	.st31{fill:#FFFFFF;}
	.st32{fill:#FFFFFF;stroke:#000000;stroke-miterlimit:10;}
	.st33{opacity:0.15;fill:url(#SVGID_16_);}
	.st34{opacity:0.14;fill:url(#SVGID_17_);}
	.st35{fill:#322349;}
	.st36{fill:url(#SVGID_18_);}
	.st37{opacity:0.15;fill:url(#SVGID_19_);}
	.st38{opacity:0.14;fill:url(#SVGID_20_);}
	.st39{opacity:0.14;fill:url(#SVGID_21_);}
	.st40{fill:#433DBF;}
	.st41{display:none;}
	.st42{display:inline;opacity:0.42;fill:#171544;}
	.st43{fill:#171544;}
	.st44{fill:#6767CE;}
	.st45{fill:#362C96;}
	.st46{fill:#BEBBFC;}
	.st47{display:inline;fill:#433DBF;}
	.st48{fill:#F9EEB2;stroke:#B54774;stroke-width:1.2155;stroke-miterlimit:10;}
</style>
<g id="Layer_2">
</g>
<g id="Layer_3">
</g>
<g id="Layer_27">
</g>
<g id="Layer_26">
</g>
<g id="Layer_23">
</g>
<g id="Layer_29">
</g>
<g id="Layer_28">
</g>
<g id="Layer_5">
</g>
<g id="Layer_9">
</g>
<g id="Layer_10">
</g>
<g id="Layer_1">
</g>
<g id="Layer_4">
</g>
<g id="Layer_8">
</g>
<g id="Layer_6">
</g>
<g id="Layer_7">
	<g>
		<path class="st27" d="M793.1,210.7c-0.2,17.9-2.5,44.1-12.6,73.9c-14,41.3-35.9,68.6-46.4,80.6c-17.5,19.9-41.3,46.9-82.7,59.6
			c-42.6,13.1-80,3.6-97.3-2.1c-3.4-16.3-8.9-54.1,7.1-97.1c3.3-8.8,21.8-56.5,71.9-87.8c28.5-17.8,54.8-22.5,74.5-26.1
			C743.3,205.3,773.4,207.6,793.1,210.7z"/>
		<path class="st28" d="M603.4,370.6c13.5,16.3,30.1,24.9,39.4,28.9c18.3,7.9,34.7,8.9,44.2,8.8c-10.6,6.2-24.3,12.6-40.8,17
			c-42.2,11.4-78.6,3.4-97.1-2.2c-1.7-16.2-2.3-40.5,4.3-68.9c7-30.3,19.2-53.1,28.4-67.2C580.5,295.2,575.6,337.1,603.4,370.6z"/>
	</g>
	<path class="st29" d="M549.5,416.8c-0.1-6.2-2.1-57.3-43.8-86.2c-20.9-14.5-42.5-17-53.3-17.4c17.7-9.3,38.8-18.9,62.9-27.3
		c31.3-10.8,59.9-16.9,83.9-20.4c-16.5,17.5-35.8,43.6-43.9,78.7C546.8,381.3,549.6,421.1,549.5,416.8z"/>
	<path class="st29" d="M559,426.7c6.1,0.7,56.9,7,82.1,51.1c12.6,22.1,13.2,43.8,12.7,54.6c10.8-16.4,22.3-36.5,32.7-60.3
		c13.7-31.4,21.4-60.3,25.9-83.8c-18.4,15.7-45.4,33.5-80.5,38.9C594.2,433,554.8,426.2,559,426.7z"/>
</g>
<g id="Layer_24">
</g>
<g id="Layer_13">
</g>
<g id="Layer_11">
</g>
<g id="Layer_12">
</g>
<g id="Layer_14">
</g>
<g id="Layer_15" class="st41">
</g>
<g id="Layer_16">
</g>
<g id="Layer_17">
</g>
<g id="Layer_18">
</g>
<g id="Layer_19">
</g>
<g id="Layer_25">
</g>
<g id="Layer_20" class="st41">
</g>
<g id="Layer_21" class="st41">
</g>
<g id="Layer_22">
</g>
<g id="Layer_30">
	<path class="st48" d="M730.2,302.1c-1.5,0.8-4.2,2-7.6,2.4c0,0-3.1,0.3-6-0.2c-11.1-2.1-18.5-12.9-16.3-24
		c2.1-11.1,12.9-18.5,24-16.3c3,0.6,5.7,2,5.7,2c3.1,1.6,5.1,3.7,6.2,5c-1.3-2.9-5-10.4-13.4-14.9c-0.7-0.4-4.3-2.2-8.3-2.9
		c-15.9-3-31.3,7.4-34.3,23.4c-3,15.9,7.4,31.3,23.4,34.3c4,0.8,8,0.4,8.8,0.3C721.7,309.9,727.9,304.3,730.2,302.1z"/>
</g>
</svg>
