<svg xmlns="http://www.w3.org/2000/svg" xmlns:xlink="http://www.w3.org/1999/xlink" viewBox="0 0 1366 768"><defs><style>.cls-1{fill:url(#linear-gradient);}.cls-2{fill:#fd9399;}.cls-2,.cls-3{opacity:0.13;}.cls-3{fill:#ea8191;}.cls-4{fill:#fff;}.cls-5{opacity:0.15;fill:url(#linear-gradient-2);}.cls-6{font-size:36px;fill:#322349;font-family:TextMeOne-Regular, Text Me One;}</style><linearGradient id="linear-gradient" x1="686.33" y1="773.8" x2="679.67" y2="-5.8" gradientUnits="userSpaceOnUse"><stop offset="0.09" stop-color="#fd9399"/><stop offset="0.3" stop-color="#fd7f99"/><stop offset="0.33" stop-color="#f47c98"/><stop offset="0.39" stop-color="#da7495"/><stop offset="0.46" stop-color="#b16790"/><stop offset="0.52" stop-color="#8a5a8b"/><stop offset="0.65" stop-color="#664687"/><stop offset="1" stop-color="#353481"/></linearGradient><linearGradient id="linear-gradient-2" x1="690.11" y1="840.31" x2="687.42" y2="525.21" gradientUnits="userSpaceOnUse"><stop offset="0.38" stop-color="#3253cd"/><stop offset="0.51" stop-color="#324fc4"/><stop offset="0.72" stop-color="#3345aa"/><stop offset="1" stop-color="#353481"/></linearGradient></defs><title>sleepycornerbackground</title><g id="Layer_4" data-name="Layer 4"><rect class="cls-1" width="1366" height="768"/></g><g id="Layer_6" data-name="Layer 6"><path class="cls-2" d="M467,405.49c2.55-5.15,8.5-14.74,22-22.89a77.61,77.61,0,0,1,40.18-12.1,78.87,78.87,0,0,1,33,6.55c4.57-1.74,24.45-8.82,48.08-4,28.18,5.71,39.48,23.8,41.62,27.23a38.47,38.47,0,0,1,5.74,16.14c.88-2.13,5.37-12.12,19.37-17.14,14.55-5.22,33.46-3,47,5.9,21.69-8.53,46.49-7.37,60.6,2,6,4,13.31,11.58,13.68,21.37a22.91,22.91,0,0,1-3.73,13,69.23,69.23,0,0,1,32.46-7.1,64.73,64.73,0,0,1,37.88,12.83,40.26,40.26,0,0,1,13.28,16.44A35.12,35.12,0,0,1,893.73,458c20.6-2.18,46.19,13.92,47.28,32,1,17.17-20.49,28.13-23.68,29.75-5.55,2.83-18,9.15-29.42,6.55-7.09-1.61-9.92-5.78-15.79-5-4.5.56-6.17,3.42-11.08,7.45,0,0-4.56,4.87-19.16,10.75-19.26,7.76-38.17,7.87-47.08,7.49,1.16,6.86-4.68,13-12.86,14.55a23.33,23.33,0,0,1-17.6-3.91,25.27,25.27,0,0,1-7,14.6c-12,12.49-38.17,17.64-66.16,13.3a72,72,0,0,1-13.51,9.88c-6.43,3.68-21.38,12.24-42.36,12a76,76,0,0,1-29.53-6.27,98.18,98.18,0,0,1-50.74,3.2c-31.06-6.49-43.07-26.05-44.62-28.7a45.9,45.9,0,0,1-19.29,12.68c-20,7.21-40,1.66-43.16.73a61.56,61.56,0,0,1-19.31,12.84c-28.52,12.29-60.86,4.19-66.09,2.81a87.81,87.81,0,0,1-37.07,5c-29.84-2.65-51-21.28-57.24-38.62A36.15,36.15,0,0,1,267,551.15,103.65,103.65,0,0,1,240.21,560c-6.2,1.17-26,4.71-47.61-.78-31.58-8-43.54-29.24-45.39-32.69a51.53,51.53,0,0,1-20.93,6.75c-17,1.7-34.71-4.69-46.19-16.16a190.84,190.84,0,0,1-45.15.25,173.74,173.74,0,0,1-46.4-11.73,62.16,62.16,0,0,1-18.94,5,68.67,68.67,0,0,1-21.21-1,23.81,23.81,0,0,1-6.7-6.92c-6-10,1-20.07,3.71-24,3.72-5.36,10.37-14.95,24.95-17.27a46,46,0,0,1,23.47,2.83c2.24-3.72,8.45-12.63,22.53-19.43a83.53,83.53,0,0,1,31.25-7.73l29.46,7.5a36.92,36.92,0,0,1,6.71-25.81,47.79,47.79,0,0,1,23.42-18.47c4-1.54,19.87-7.6,31.58-2.62a18.16,18.16,0,0,1,6.46,4.54A37.28,37.28,0,0,1,158.18,398c14.77-2,27.4,5.12,36.57,10.28,13.65,7.68,21.76,16.88,26.55,24.2a52.17,52.17,0,0,1,7.81-27.73c3.52-5.76,7.54-12.35,17.21-18.1,11.8-7,24.7-8.41,30.48-9a95.28,95.28,0,0,1,42.08,5.4,59.63,59.63,0,0,1,18.73-6.77c21.43-4,44.66,2.25,57.33,12.82a37.43,37.43,0,0,1,5,5,74.12,74.12,0,0,1,31.34-3.67C452.59,392.63,464.53,403.22,467,405.49Z"/><path class="cls-3" d="M1022.08,389.48c2.55-5.15,8.5-14.74,22-22.89a77.61,77.61,0,0,1,40.18-12.1,78.87,78.87,0,0,1,33,6.55c4.57-1.74,24.45-8.82,48.08-4,28.18,5.71,39.48,23.8,41.62,27.23a38.47,38.47,0,0,1,5.74,16.14c.88-2.13,5.37-12.12,19.37-17.14,14.55-5.22,33.46-3,47,5.9,21.69-8.53,46.49-7.37,60.6,2,6,4,13.31,11.58,13.68,21.37a22.91,22.91,0,0,1-3.73,13,69.23,69.23,0,0,1,32.46-7.1,64.73,64.73,0,0,1,37.88,12.83,40.26,40.26,0,0,1,13.28,16.44,35.12,35.12,0,0,1,15.63-5.66c20.6-2.18,46.19,13.92,47.28,32,1,17.17-20.49,28.13-23.68,29.75-5.55,2.83-18,9.15-29.42,6.55-7.09-1.61-9.92-5.78-15.79-5-4.5.56-6.17,3.42-11.08,7.45,0,0-4.56,4.87-19.16,10.75-19.26,7.76-38.17,7.87-47.08,7.49,1.16,6.86-4.68,13-12.86,14.55a23.33,23.33,0,0,1-17.6-3.91,25.27,25.27,0,0,1-7,14.6c-12,12.49-38.17,17.64-66.16,13.3a72,72,0,0,1-13.51,9.88c-6.43,3.68-21.38,12.24-42.36,12a76,76,0,0,1-29.53-6.27,98.18,98.18,0,0,1-50.74,3.2c-31.06-6.49-43.07-26.05-44.62-28.7a45.9,45.9,0,0,1-19.29,12.68c-20,7.21-40,1.66-43.16.73a61.56,61.56,0,0,1-19.31,12.84c-28.52,12.29-60.86,4.19-66.09,2.81a87.81,87.81,0,0,1-37.07,5c-29.84-2.65-51-21.28-57.24-38.62a36.15,36.15,0,0,1-1.26-19.92A103.65,103.65,0,0,1,795.32,544c-6.2,1.17-26,4.71-47.61-.78-31.58-8-43.54-29.24-45.39-32.69a51.53,51.53,0,0,1-20.93,6.75c-17,1.7-34.71-4.69-46.19-16.16a190.84,190.84,0,0,1-45.15.25,173.74,173.74,0,0,1-46.4-11.73,62.16,62.16,0,0,1-18.94,5,68.67,68.67,0,0,1-21.21-1,23.81,23.81,0,0,1-6.7-6.92c-6-10,1-20.07,3.71-24,3.72-5.36,10.37-14.95,24.95-17.27a46,46,0,0,1,23.47,2.83c2.24-3.72,8.45-12.63,22.53-19.43a83.53,83.53,0,0,1,31.25-7.73l29.46,7.5a36.92,36.92,0,0,1,6.71-25.81,47.79,47.79,0,0,1,23.42-18.47c4-1.54,19.87-7.6,31.58-2.62a18.16,18.16,0,0,1,6.46,4.54A37.28,37.28,0,0,1,713.29,382c14.77-2,27.4,5.12,36.57,10.28,13.65,7.68,21.76,16.88,26.55,24.2a52.17,52.17,0,0,1,7.81-27.73c3.52-5.76,7.54-12.35,17.21-18.1,11.8-7,24.7-8.41,30.48-9a95.28,95.28,0,0,1,42.08,5.4,59.63,59.63,0,0,1,18.73-6.77c21.43-4,44.66,2.25,57.33,12.82a37.43,37.43,0,0,1,5,5,74.12,74.12,0,0,1,31.34-3.67C1007.7,376.62,1019.64,387.21,1022.08,389.48Z"/><path class="cls-2" d="M258.56,567.77c2.55-5.15,8.5-14.74,22-22.89a77.61,77.61,0,0,1,40.18-12.1,78.87,78.87,0,0,1,33,6.55c4.57-1.74,24.45-8.82,48.08-4,28.18,5.71,39.48,23.8,41.62,27.23a38.47,38.47,0,0,1,5.74,16.14c.88-2.13,5.37-12.12,19.37-17.14,14.55-5.22,33.46-3,47,5.9,21.69-8.53,46.49-7.37,60.6,2,6,4,13.31,11.58,13.68,21.37a22.91,22.91,0,0,1-3.73,13,69.23,69.23,0,0,1,32.46-7.1,64.73,64.73,0,0,1,37.88,12.83,40.26,40.26,0,0,1,13.28,16.44,35.12,35.12,0,0,1,15.63-5.66c20.6-2.18,46.19,13.92,47.28,32,1,17.17-20.49,28.13-23.68,29.75-5.55,2.83-18,9.15-29.42,6.55-7.09-1.61-9.92-5.78-15.79-5-4.5.56-6.17,3.42-11.08,7.45,0,0-4.56,4.87-19.16,10.75-19.26,7.76-38.17,7.87-47.08,7.49,1.16,6.86-4.68,13-12.86,14.55a23.33,23.33,0,0,1-17.6-3.91,25.27,25.27,0,0,1-7,14.6c-12,12.49-38.17,17.64-66.16,13.3a72,72,0,0,1-13.51,9.88c-6.43,3.68-21.38,12.24-42.36,12a76,76,0,0,1-29.53-6.27,98.18,98.18,0,0,1-50.74,3.2c-31.06-6.49-43.07-26.05-44.62-28.7a45.9,45.9,0,0,1-19.29,12.68c-20,7.21-40,1.66-43.16.73a61.56,61.56,0,0,1-19.31,12.84c-28.52,12.29-60.86,4.19-66.09,2.81A87.81,87.81,0,0,1,117,772C87.2,769.33,66,750.7,59.8,733.35a36.15,36.15,0,0,1-1.26-19.92,103.65,103.65,0,0,1-26.76,8.84c-6.2,1.17-26,4.71-47.61-.78-31.58-8-43.54-29.24-45.39-32.69a51.53,51.53,0,0,1-20.93,6.75c-17,1.7-34.71-4.69-46.19-16.16a190.84,190.84,0,0,1-45.15.25,173.74,173.74,0,0,1-46.4-11.73,62.16,62.16,0,0,1-18.94,5,68.67,68.67,0,0,1-21.21-1,23.81,23.81,0,0,1-6.7-6.92c-6-10,1-20.07,3.71-24,3.72-5.36,10.37-14.95,24.95-17.27a46,46,0,0,1,23.47,2.83c2.24-3.72,8.45-12.63,22.53-19.43a83.53,83.53,0,0,1,31.25-7.73l29.46,7.5a36.92,36.92,0,0,1,6.71-25.81,47.79,47.79,0,0,1,23.42-18.47c4-1.54,19.87-7.6,31.58-2.62a18.16,18.16,0,0,1,6.46,4.54,37.28,37.28,0,0,1,12.94-4.23c14.77-2,27.4,5.12,36.57,10.28C0,578.28,8.09,587.48,12.88,594.8a52.17,52.17,0,0,1,7.81-27.73c3.52-5.76,7.54-12.35,17.21-18.1,11.8-7,24.7-8.41,30.48-9a95.28,95.28,0,0,1,42.08,5.4,59.63,59.63,0,0,1,18.73-6.77c21.43-4,44.66,2.25,57.33,12.82a37.43,37.43,0,0,1,5,5,74.12,74.12,0,0,1,31.34-3.67C244.17,554.91,256.12,565.51,258.56,567.77Z"/><path class="cls-2" d="M1058,567.77c2.55-5.15,8.5-14.74,22-22.89a77.61,77.61,0,0,1,40.18-12.1,78.87,78.87,0,0,1,33,6.55c4.57-1.74,24.45-8.82,48.08-4,28.18,5.71,39.48,23.8,41.62,27.23a38.47,38.47,0,0,1,5.74,16.14c.88-2.13,5.37-12.12,19.37-17.14,14.55-5.22,33.46-3,47,5.9,21.69-8.53,46.49-7.37,60.6,2,6,4,13.31,11.58,13.68,21.37a22.91,22.91,0,0,1-3.73,13,69.23,69.23,0,0,1,32.46-7.1,64.73,64.73,0,0,1,37.88,12.83,40.26,40.26,0,0,1,13.28,16.44,35.12,35.12,0,0,1,15.63-5.66c20.6-2.18,46.19,13.92,47.28,32,1,17.17-20.49,28.13-23.68,29.75-5.55,2.83-18,9.15-29.42,6.55-7.09-1.61-9.92-5.78-15.79-5-4.5.56-6.17,3.42-11.08,7.45,0,0-4.56,4.87-19.16,10.75-19.26,7.76-38.17,7.87-47.08,7.49,1.16,6.86-4.68,13-12.86,14.55a23.33,23.33,0,0,1-17.6-3.91,25.27,25.27,0,0,1-7,14.6c-12,12.49-38.17,17.64-66.16,13.3a72,72,0,0,1-13.51,9.88c-6.43,3.68-21.38,12.24-42.36,12a76,76,0,0,1-29.53-6.27,98.18,98.18,0,0,1-50.74,3.2c-31.06-6.49-43.07-26.05-44.62-28.7a45.9,45.9,0,0,1-19.29,12.68c-20,7.21-40,1.66-43.16.73a61.56,61.56,0,0,1-19.31,12.84c-28.52,12.29-60.86,4.19-66.09,2.81a87.81,87.81,0,0,1-37.07,5c-29.84-2.65-51-21.28-57.24-38.62A36.15,36.15,0,0,1,858,713.43a103.65,103.65,0,0,1-26.76,8.84c-6.2,1.17-26,4.71-47.61-.78-31.58-8-43.54-29.24-45.39-32.69a51.53,51.53,0,0,1-20.93,6.75c-17,1.7-34.71-4.69-46.19-16.16a190.84,190.84,0,0,1-45.15.25,173.74,173.74,0,0,1-46.4-11.73,62.16,62.16,0,0,1-18.94,5,68.67,68.67,0,0,1-21.21-1,23.81,23.81,0,0,1-6.7-6.92c-6-10,1-20.07,3.71-24,3.72-5.36,10.37-14.95,24.95-17.27a46,46,0,0,1,23.47,2.83c2.24-3.72,8.45-12.63,22.53-19.43a83.53,83.53,0,0,1,31.25-7.73l29.46,7.5a36.92,36.92,0,0,1,6.71-25.81,47.79,47.79,0,0,1,23.42-18.47c4-1.54,19.87-7.6,31.58-2.62a18.16,18.16,0,0,1,6.46,4.54,37.28,37.28,0,0,1,12.94-4.23c14.77-2,27.4,5.12,36.57,10.28,13.65,7.68,21.76,16.88,26.55,24.2a52.17,52.17,0,0,1,7.81-27.73c3.52-5.76,7.54-12.35,17.21-18.1,11.8-7,24.7-8.41,30.48-9a95.28,95.28,0,0,1,42.08,5.4,59.63,59.63,0,0,1,18.73-6.77c21.43-4,44.66,2.25,57.33,12.82a37.43,37.43,0,0,1,5,5,74.12,74.12,0,0,1,31.34-3.67C1043.63,554.91,1055.58,565.51,1058,567.77Z"/><path class="cls-3" d="M401,567.77c2.55-5.15,8.5-14.74,22-22.89a77.61,77.61,0,0,1,40.18-12.1,78.87,78.87,0,0,1,33,6.55c4.57-1.74,24.45-8.82,48.08-4,28.18,5.71,39.48,23.8,41.62,27.23a38.47,38.47,0,0,1,5.74,16.14c.88-2.13,5.37-12.12,19.37-17.14,14.55-5.22,33.46-3,47,5.9,21.69-8.53,46.49-7.37,60.6,2,6,4,13.31,11.58,13.68,21.37a22.91,22.91,0,0,1-3.73,13,69.23,69.23,0,0,1,32.46-7.1,64.73,64.73,0,0,1,37.88,12.83,40.26,40.26,0,0,1,13.28,16.44,35.12,35.12,0,0,1,15.63-5.66c20.6-2.18,46.19,13.92,47.28,32,1,17.17-20.49,28.13-23.68,29.75-5.55,2.83-18,9.15-29.42,6.55-7.09-1.61-9.92-5.78-15.79-5-4.5.56-6.17,3.42-11.08,7.45,0,0-4.56,4.87-19.16,10.75-19.26,7.76-38.17,7.87-47.08,7.49,1.16,6.86-4.68,13-12.86,14.55a23.33,23.33,0,0,1-17.6-3.91,25.27,25.27,0,0,1-7,14.6c-12,12.49-38.17,17.64-66.16,13.3a72,72,0,0,1-13.51,9.88c-6.43,3.68-21.38,12.24-42.36,12a76,76,0,0,1-29.53-6.27,98.18,98.18,0,0,1-50.74,3.2c-31.06-6.49-43.07-26.05-44.62-28.7a45.9,45.9,0,0,1-19.29,12.68c-20,7.21-40,1.66-43.16.73a61.56,61.56,0,0,1-19.31,12.84c-28.52,12.29-60.86,4.19-66.09,2.81a87.81,87.81,0,0,1-37.07,5c-29.84-2.65-51-21.28-57.24-38.62A36.15,36.15,0,0,1,201,713.43a103.65,103.65,0,0,1-26.76,8.84c-6.2,1.17-26,4.71-47.61-.78-31.58-8-43.54-29.24-45.39-32.69a51.53,51.53,0,0,1-20.93,6.75c-17,1.7-34.71-4.69-46.19-16.16a190.84,190.84,0,0,1-45.15.25,173.74,173.74,0,0,1-46.4-11.73,62.16,62.16,0,0,1-18.94,5,68.67,68.67,0,0,1-21.21-1,23.81,23.81,0,0,1-6.7-6.92c-6-10,1-20.07,3.71-24,3.72-5.36,10.37-14.95,24.95-17.27a46,46,0,0,1,23.47,2.83c2.24-3.72,8.45-12.63,22.53-19.43a83.53,83.53,0,0,1,31.25-7.73l29.46,7.5a36.92,36.92,0,0,1,6.71-25.81A47.79,47.79,0,0,1,41.2,562.63c4-1.54,19.87-7.6,31.58-2.62a18.16,18.16,0,0,1,6.46,4.54,37.28,37.28,0,0,1,12.94-4.23c14.77-2,27.4,5.12,36.57,10.28,13.65,7.68,21.76,16.88,26.55,24.2a52.17,52.17,0,0,1,7.81-27.73c3.52-5.76,7.54-12.35,17.21-18.1,11.8-7,24.7-8.41,30.48-9a95.28,95.28,0,0,1,42.08,5.4,59.63,59.63,0,0,1,18.73-6.77c21.43-4,44.66,2.25,57.33,12.82a37.43,37.43,0,0,1,5,5,74.12,74.12,0,0,1,31.34-3.67C386.59,554.91,398.54,565.51,401,567.77Z"/><path class="cls-2" d="M842.3,573.49c2.55-5.15,8.5-14.74,22-22.89a77.61,77.61,0,0,1,40.18-12.1,78.87,78.87,0,0,1,33,6.55c4.57-1.74,24.45-8.82,48.08-4,28.18,5.71,39.48,23.8,41.62,27.23a38.47,38.47,0,0,1,5.74,16.14c.88-2.13,5.37-12.12,19.37-17.14,14.55-5.22,33.46-3,47,5.9,21.69-8.53,46.49-7.37,60.6,2,6,4,13.31,11.58,13.68,21.37a22.91,22.91,0,0,1-3.73,13,69.23,69.23,0,0,1,32.46-7.1,64.73,64.73,0,0,1,37.88,12.83,40.26,40.26,0,0,1,13.28,16.44A35.12,35.12,0,0,1,1269,626c20.6-2.18,46.19,13.92,47.28,32,1,17.17-20.49,28.13-23.68,29.75-5.55,2.83-18,9.15-29.42,6.55-7.09-1.61-9.92-5.78-15.79-5-4.5.56-6.17,3.42-11.08,7.45,0,0-4.56,4.87-19.16,10.75-19.26,7.76-38.17,7.87-47.08,7.49,1.16,6.86-4.68,13-12.86,14.55a23.33,23.33,0,0,1-17.6-3.91,25.27,25.27,0,0,1-7,14.6c-12,12.49-38.17,17.64-66.16,13.3a72,72,0,0,1-13.51,9.88c-6.43,3.68-21.38,12.24-42.36,12a76,76,0,0,1-29.53-6.27,98.18,98.18,0,0,1-50.74,3.2c-31.06-6.49-43.07-26.05-44.62-28.7a45.9,45.9,0,0,1-19.29,12.68c-20,7.21-40,1.66-43.16.73a61.56,61.56,0,0,1-19.31,12.84c-28.52,12.29-60.86,4.19-66.09,2.81a87.81,87.81,0,0,1-37.07,5c-29.84-2.65-51-21.28-57.24-38.62a36.15,36.15,0,0,1-1.26-19.92A103.65,103.65,0,0,1,615.53,728c-6.2,1.17-26,4.71-47.61-.78-31.58-8-43.54-29.24-45.39-32.69a51.53,51.53,0,0,1-20.93,6.75c-17,1.7-34.71-4.69-46.19-16.16a190.84,190.84,0,0,1-45.15.25,173.74,173.74,0,0,1-46.4-11.73,62.16,62.16,0,0,1-18.94,5,68.67,68.67,0,0,1-21.21-1,23.81,23.81,0,0,1-6.7-6.92c-6-10,1-20.07,3.71-24,3.72-5.36,10.37-14.95,24.95-17.27a46,46,0,0,1,23.47,2.83c2.24-3.72,8.45-12.63,22.53-19.43a83.53,83.53,0,0,1,31.25-7.73l29.46,7.5a36.92,36.92,0,0,1,6.71-25.81,47.79,47.79,0,0,1,23.42-18.47c4-1.54,19.87-7.6,31.58-2.62a18.16,18.16,0,0,1,6.46,4.54A37.28,37.28,0,0,1,533.5,566c14.77-2,27.4,5.12,36.57,10.28,13.65,7.68,21.76,16.88,26.55,24.2a52.17,52.17,0,0,1,7.81-27.73c3.52-5.76,7.54-12.35,17.21-18.1,11.8-7,24.7-8.41,30.48-9a95.28,95.28,0,0,1,42.08,5.4,59.63,59.63,0,0,1,18.73-6.77c21.43-4,44.66,2.25,57.33,12.82a37.43,37.43,0,0,1,5,5,74.12,74.12,0,0,1,31.34-3.67C827.91,560.63,839.85,571.22,842.3,573.49Z"/><path class="cls-3" d="M1343.16,576c2.55-5.15,8.5-14.74,22-22.89a77.61,77.61,0,0,1,40.18-12.1,78.87,78.87,0,0,1,33,6.55c4.57-1.74,24.45-8.82,48.08-4,28.18,5.71,39.48,23.8,41.62,27.23a38.47,38.47,0,0,1,5.74,16.14c.88-2.13,5.37-12.12,19.37-17.14,14.55-5.22,33.46-3,47,5.9,21.69-8.53,46.49-7.37,60.6,2,6,4,13.31,11.58,13.68,21.37a22.91,22.91,0,0,1-3.73,13,69.23,69.23,0,0,1,32.46-7.1A64.73,64.73,0,0,1,1741,617.75a40.26,40.26,0,0,1,13.28,16.44,35.12,35.12,0,0,1,15.63-5.66c20.6-2.18,46.19,13.92,47.28,32,1,17.17-20.49,28.13-23.68,29.75-5.55,2.83-18,9.15-29.42,6.55-7.09-1.61-9.92-5.78-15.79-5-4.5.56-6.17,3.42-11.08,7.45,0,0-4.56,4.87-19.16,10.75-19.26,7.76-38.17,7.87-47.08,7.49,1.16,6.86-4.68,13-12.86,14.55a23.33,23.33,0,0,1-17.6-3.91,25.27,25.27,0,0,1-7,14.6c-12,12.49-38.17,17.64-66.16,13.3a72,72,0,0,1-13.51,9.88c-6.43,3.68-21.38,12.24-42.36,12a76,76,0,0,1-29.53-6.27,98.18,98.18,0,0,1-50.74,3.2c-31.06-6.49-43.07-26.05-44.62-28.7a45.9,45.9,0,0,1-19.29,12.68c-20,7.21-40,1.66-43.16.73a61.56,61.56,0,0,1-19.31,12.84c-28.52,12.29-60.86,4.19-66.09,2.81a87.81,87.81,0,0,1-37.07,5c-29.84-2.65-51-21.28-57.24-38.62a36.15,36.15,0,0,1-1.26-19.92,103.65,103.65,0,0,1-26.76,8.84c-6.2,1.17-26,4.71-47.61-.78-31.58-8-43.54-29.24-45.39-32.69a51.53,51.53,0,0,1-20.93,6.75c-17,1.7-34.71-4.69-46.19-16.16a190.84,190.84,0,0,1-45.15.25,173.74,173.74,0,0,1-46.4-11.73,62.16,62.16,0,0,1-18.94,5,68.67,68.67,0,0,1-21.21-1,23.81,23.81,0,0,1-6.7-6.92c-6-10,1-20.07,3.71-24,3.72-5.36,10.37-14.95,24.95-17.27A46,46,0,0,1,870,634.83c2.24-3.72,8.45-12.63,22.53-19.43a83.53,83.53,0,0,1,31.25-7.73l29.46,7.5A36.92,36.92,0,0,1,960,589.36a47.79,47.79,0,0,1,23.42-18.47c4-1.54,19.87-7.6,31.58-2.62a18.16,18.16,0,0,1,6.46,4.54,37.28,37.28,0,0,1,12.94-4.23c14.77-2,27.4,5.12,36.57,10.28,13.65,7.68,21.76,16.88,26.55,24.2a52.17,52.17,0,0,1,7.81-27.73c3.52-5.76,7.54-12.35,17.21-18.1,11.8-7,24.7-8.41,30.48-9a95.28,95.28,0,0,1,42.08,5.4,59.63,59.63,0,0,1,18.73-6.77c21.43-4,44.66,2.25,57.33,12.82a37.43,37.43,0,0,1,5,5,74.12,74.12,0,0,1,31.34-3.67C1328.77,563.17,1340.71,573.76,1343.16,576Z"/></g><g id="Layer_13" data-name="Layer 13"><path class="cls-4" d="M169.77,77.8c-2.75.31-6.91,1.24-9.75,4.45a17.37,17.37,0,0,0-4.39,11.51c0,.24,0,.45,0,.59.06-5.85-1.71-8.9-3.26-10.59-4.21-4.59-12.71-5.65-12.68-5.88h.14a15.92,15.92,0,0,0,10.65-3.93c4.35-3.87,5-9.54,5.21-11.41V62.4a15.71,15.71,0,0,0,4.59,11.17A15.46,15.46,0,0,0,169.77,77.8Z"/><path class="cls-4" d="M441.39,121.65c-2.75.31-6.91,1.24-9.75,4.45a17.37,17.37,0,0,0-4.39,11.51c0,.24,0,.45,0,.59.06-5.85-1.71-8.9-3.26-10.59-4.21-4.59-12.71-5.65-12.68-5.88h.14a15.92,15.92,0,0,0,10.65-3.93c4.35-3.87,5-9.54,5.21-11.41v-.13a15.71,15.71,0,0,0,4.59,11.17A15.46,15.46,0,0,0,441.39,121.65Z"/><path class="cls-4" d="M75.29,222.37c-2.75.31-6.91,1.24-9.75,4.45a17.37,17.37,0,0,0-4.39,11.51c0,.24,0,.45,0,.59.06-5.85-1.71-8.9-3.26-10.59-4.21-4.59-12.71-5.65-12.68-5.88h.14A15.92,15.92,0,0,0,56,218.51c4.35-3.87,5-9.54,5.21-11.41V207a15.71,15.71,0,0,0,4.59,11.17A15.46,15.46,0,0,0,75.29,222.37Z"/><path class="cls-4" d="M367.18,230c-2.75.31-6.91,1.24-9.75,4.45A17.37,17.37,0,0,0,353,246c0,.24,0,.45,0,.59.06-5.85-1.71-8.9-3.26-10.59-4.21-4.59-12.71-5.65-12.68-5.88h.14a15.92,15.92,0,0,0,10.65-3.93c4.35-3.87,5-9.54,5.21-11.41v-.13a15.71,15.71,0,0,0,4.59,11.17A15.46,15.46,0,0,0,367.18,230Z"/><path class="cls-4" d="M1033.73,248.1c-2.75-.31-6.91-1.24-9.75-4.45a17.37,17.37,0,0,1-4.39-11.51c0-.24,0-.45,0-.59.06,5.85-1.71,8.9-3.26,10.59-4.21,4.59-12.71,5.65-12.68,5.88h.14a15.92,15.92,0,0,1,10.65,3.93c4.35,3.87,5,9.54,5.21,11.41v.13a15.71,15.71,0,0,1,4.59-11.17A15.46,15.46,0,0,1,1033.73,248.1Z"/><path class="cls-4" d="M1305.35,204.25c-2.75-.31-6.91-1.24-9.75-4.45a17.37,17.37,0,0,1-4.39-11.51c0-.24,0-.45,0-.59.06,5.85-1.71,8.9-3.26,10.59-4.21,4.59-12.71,5.65-12.68,5.88h.14a15.92,15.92,0,0,1,10.65,3.93c4.35,3.87,5,9.54,5.21,11.41v.13a15.71,15.71,0,0,1,4.59-11.17A15.46,15.46,0,0,1,1305.35,204.25Z"/><path class="cls-4" d="M939.24,103.53c-2.75-.31-6.91-1.24-9.75-4.45a17.37,17.37,0,0,1-4.39-11.51c0-.24,0-.45,0-.59.06,5.85-1.71,8.9-3.26,10.59-4.21,4.59-12.71,5.65-12.68,5.88h.14A15.92,15.92,0,0,1,920,107.39c4.35,3.87,5,9.54,5.21,11.41v.13a15.71,15.71,0,0,1,4.59-11.17A15.46,15.46,0,0,1,939.24,103.53Z"/><path class="cls-4" d="M1231.13,95.87c-2.75-.31-6.91-1.24-9.75-4.45A17.37,17.37,0,0,1,1217,79.91c0-.24,0-.45,0-.59.06,5.85-1.71,8.9-3.26,10.59-4.21,4.59-12.71,5.65-12.68,5.88h.14a15.92,15.92,0,0,1,10.65,3.93c4.35,3.87,5,9.54,5.21,11.41v.13a15.71,15.71,0,0,1,4.59-11.17A15.46,15.46,0,0,1,1231.13,95.87Z"/></g><g id="Layer_11" data-name="Layer 11"><rect class="cls-5" x="75.29" y="480.24" width="1225.44" height="226.65"/></g><g id="Layer_12" data-name="Layer 12"><text class="cls-6" transform="translate(138.09 538.49)">Even the moon needs rest, so the sun may rise and start a new day. <tspan x="224.12" y="43.2">Sleep well and sweet dreams, sweet soul.</tspan><tspan x="329.43" y="86.4">Lull yourself into cloud nine</tspan><tspan x="304.18" y="129.6">while the moon and stars align.</tspan></text></g></svg>